HIERARCHY
ROOT joint_Root
{
	OFFSET 0.0 0.0 0.0
	CHANNELS 6 Xposition Yposition Zposition Zrotation Xrotation Yrotation 
	JOINT Hips
	{
		OFFSET -17.1583 93.1646 452.98
		CHANNELS 6 Xposition Yposition Zposition Zrotation Xrotation Yrotation 
		JOINT Spine
		{
			OFFSET 15.7357 0.0 0.0
			CHANNELS 6 Xposition Yposition Zposition Zrotation Xrotation Yrotation 
			JOINT Chest
			{
				OFFSET 8.98455 -0.406207 0.0
				CHANNELS 6 Xposition Yposition Zposition Zrotation Xrotation Yrotation 
				JOINT Neck
				{
					OFFSET 16.3773 0.0 0.0
					CHANNELS 6 Xposition Yposition Zposition Zrotation Xrotation Yrotation 
					JOINT Head
					{
						OFFSET 6.45672 0.0 0.0
						CHANNELS 6 Xposition Yposition Zposition Zrotation Xrotation Yrotation 
						End Site
						{
							OFFSET 0.0 0.0 0.0
						}
					}
				}
				JOINT Shoulder_L
				{
					OFFSET 12.9942 -0.242716 4.98039
					CHANNELS 6 Xposition Yposition Zposition Zrotation Xrotation Yrotation 
					JOINT UpperArm_L
					{
						OFFSET 5.34809 0.0 0.0
						CHANNELS 6 Xposition Yposition Zposition Zrotation Xrotation Yrotation 
						JOINT LowerArm_L
						{
							OFFSET 24.3286 1.87007e-05 0.0
							CHANNELS 6 Xposition Yposition Zposition Zrotation Xrotation Yrotation 
							JOINT Hand_L
							{
								OFFSET 22.2916 0.0 0.0
								CHANNELS 6 Xposition Yposition Zposition Zrotation Xrotation Yrotation 
								End Site
								{
									OFFSET 0.0 0.0 0.0
								}
							}
						}
					}
				}
				JOINT Shoulder_R
				{
					OFFSET 12.9945 -0.242716 -4.98039
					CHANNELS 6 Xposition Yposition Zposition Zrotation Xrotation Yrotation 
					JOINT UpperArm_R
					{
						OFFSET -5.34813 0.0 0.0
						CHANNELS 6 Xposition Yposition Zposition Zrotation Xrotation Yrotation 
						JOINT LowerArm_R
						{
							OFFSET -24.3289 0.000322201 0.0
							CHANNELS 6 Xposition Yposition Zposition Zrotation Xrotation Yrotation 
							JOINT Hand_R
							{
								OFFSET -22.2915 -0.000108084 0.0
								CHANNELS 6 Xposition Yposition Zposition Zrotation Xrotation Yrotation 
								End Site
								{
									OFFSET 0.0 0.0 0.0
								}
							}
						}
					}
				}
			}
		}
		JOINT UpperLeg_L
		{
			OFFSET -2.19248 -6.46944 0.0
			CHANNELS 6 Xposition Yposition Zposition Zrotation Xrotation Yrotation 
			JOINT LowerLeg_L
			{
				OFFSET 39.0811 0.0 -1.23785e-05
				CHANNELS 6 Xposition Yposition Zposition Zrotation Xrotation Yrotation 
				JOINT Foot_L
				{
					OFFSET 40.9854 0.0 -1.26872e-05
					CHANNELS 6 Xposition Yposition Zposition Zrotation Xrotation Yrotation 
					JOINT Toes_L
					{
						OFFSET 11.7543 0.0 0.0
						CHANNELS 6 Xposition Yposition Zposition Zrotation Xrotation Yrotation 
						End Site
						{
							OFFSET 0.0 0.0 0.0
						}
					}
				}
			}
		}
		JOINT UpperLeg_R
		{
			OFFSET -2.19251 6.46944 0.0
			CHANNELS 6 Xposition Yposition Zposition Zrotation Xrotation Yrotation 
			JOINT LowerLeg_R
			{
				OFFSET -39.0811 -0.00228153 -0.0401928
				CHANNELS 6 Xposition Yposition Zposition Zrotation Xrotation Yrotation 
				JOINT Foot_R
				{
					OFFSET -40.9854 0.0 0.0
					CHANNELS 6 Xposition Yposition Zposition Zrotation Xrotation Yrotation 
					JOINT Toes_R
					{
						OFFSET -11.7543 0.0 0.0
						CHANNELS 6 Xposition Yposition Zposition Zrotation Xrotation Yrotation 
						End Site
						{
							OFFSET 0.0 0.0 0.0
						}
					}
				}
			}
		}
	}
}
MOTION
Frames:	4
Frame Time:	0.0333333
0.000000 0.000000 0.000000 0.000000 0.000000 -0.000000 1.711330 94.340700 57.376500 -88.295000 3.261640 168.662000 15.735700 0.000005 -0.000001 30.423800 84.854400 -28.419700 8.984550 -0.406207 -0.000000 -2.404800 -9.049050 3.824150 16.377300 -0.000001 -0.000001 -2.284670 7.737460 -1.907830 6.456720 -0.000001 -0.000000 4.469770 14.695000 -8.617960 12.994200 -0.242716 4.980390 -92.437400 8.238540 -73.455700 5.348090 -0.000007 -0.000001 -72.483000 -10.209400 -1.816910 24.328600 0.000019 0.000005 48.106100 5.125720 -85.418100 22.291600 -0.000001 0.000005 40.924400 4.064740 23.300000 12.994500 -0.242716 -4.980390 90.533000 -1.702130 -72.608600 -5.348130 -0.000001 -0.000004 -57.186600 -17.400400 30.125400 -24.328900 0.000322 -0.000009 4.902320 9.357190 -27.816900 -22.291500 -0.000108 -0.000004 48.335500 5.231750 1.909630 -2.192480 -6.469440 -0.000000 178.038000 -6.055000 4.961750 39.081100 -0.000007 -0.000012 0.030200 -0.048546 31.884800 40.985400 -0.000006 -0.000013 -3.357940 5.073070 -33.009400 11.754300 -0.000000 0.000003 0.002400 0.068066 -13.816100 -2.192510 6.469440 -0.000001 -179.569000 -9.739990 146.237000 -39.081100 -0.002282 -0.040193 0.010759 -0.031455 13.282000 -40.985400 0.000008 0.000006 -11.049700 -9.983540 -73.386200 -11.754300 -0.000006 -0.000006 -0.001215 0.186078 -9.024830
0.000000 0.000000 0.000000 0.000000 0.000000 -0.000000 1.852130 92.941400 47.668900 -88.227500 3.030260 170.185000 15.735700 0.000005 -0.000001 37.024700 84.798200 -34.880200 8.984550 -0.406207 -0.000000 -1.341700 -8.474510 4.194160 16.377300 -0.000001 -0.000001 -2.728540 7.455620 -2.132990 6.456720 -0.000001 -0.000000 4.362030 13.971600 -9.144800 12.994200 -0.242716 4.980390 -92.350200 8.084390 -73.730500 5.348090 -0.000007 -0.000001 -73.248800 -7.133850 -0.723518 24.328600 0.000019 0.000005 49.235000 7.814700 -83.316200 22.291600 -0.000001 0.000005 40.934600 4.073750 23.165600 12.994500 -0.242716 -4.980390 90.442400 -1.431700 -72.827600 -5.348130 -0.000001 -0.000004 -58.428500 -17.150800 27.609400 -24.328900 0.000322 -0.000009 4.145880 8.469220 -26.209800 -22.291500 -0.000108 -0.000004 48.341900 5.232720 1.884340 -2.192480 -6.469440 -0.000000 178.240000 -5.933810 3.015460 39.081100 -0.000007 -0.000012 0.083856 -0.085828 44.333200 40.985400 -0.000006 -0.000013 -5.537430 3.275700 -32.016100 11.754300 -0.000000 0.000003 0.002349 0.064010 -13.980600 -2.192510 6.469440 -0.000001 -178.236000 -7.734310 148.303000 -39.081100 -0.002282 -0.040193 0.005684 -0.008014 16.382800 -40.985400 0.000008 0.000006 -11.679000 -8.529330 -76.098600 -11.754300 -0.000006 -0.000006 -0.001025 0.183427 -9.132580
0.000000 0.000000 0.000000 0.000000 0.000000 -0.000000 2.373610 90.629500 38.509200 -86.313200 2.844510 170.224000 15.735700 0.000005 -0.000001 44.571600 85.204700 -41.615400 8.984550 -0.406207 -0.000000 -0.845750 -7.052690 5.863780 16.377300 -0.000001 -0.000001 -3.342270 6.857650 -1.931680 6.456720 -0.000001 -0.000000 3.870160 12.863300 -9.784050 12.994200 -0.242716 4.980390 -92.543700 8.802310 -73.811600 5.348090 -0.000007 -0.000001 -73.410900 -5.890340 1.062980 24.328600 0.000019 0.000005 51.713500 12.273300 -80.477100 22.291600 -0.000001 0.000005 39.268300 4.155380 21.977000 12.994500 -0.242716 -4.980390 90.235000 -0.764004 -72.902800 -5.348130 -0.000001 -0.000004 -60.556900 -15.070600 23.845900 -24.328900 0.000322 -0.000009 4.123070 8.355220 -26.390700 -22.291500 -0.000108 -0.000004 47.845200 5.253360 1.342550 -2.192480 -6.469440 -0.000000 -178.832000 -7.285690 -3.146170 39.081100 -0.000007 -0.000012 0.224056 -0.129912 59.893200 40.985400 -0.000006 -0.000013 -5.804240 -1.227520 -33.805100 11.754300 -0.000000 0.000003 0.002269 0.058969 -14.185000 -2.192510 6.469440 -0.000001 -173.943000 -4.190510 146.112000 -39.081100 -0.002282 -0.040193 0.032393 -0.056676 27.166400 -40.985400 0.000008 0.000006 -8.637200 -6.555710 -73.410300 -11.754300 -0.000006 -0.000006 0.000019 0.167351 -9.785660
0.000000 0.000000 0.000000 0.000000 0.000000 -0.000000 3.012620 87.513300 29.818400 -84.324600 1.920680 170.368000 15.735700 0.000005 -0.000001 54.328100 85.490800 -50.625700 8.984550 -0.406207 -0.000000 -0.248542 -5.516440 7.393390 16.377300 -0.000001 -0.000001 -4.095390 5.898740 -1.201490 6.456720 -0.000001 -0.000000 2.888550 11.568300 -10.272100 12.994200 -0.242716 4.980390 -92.966500 10.251800 -73.765400 5.348090 -0.000007 -0.000001 -71.907500 -7.484330 3.113960 24.328600 0.000019 0.000005 51.224900 17.839000 -76.174000 22.291600 -0.000001 0.000005 41.197300 4.159280 21.917300 12.994500 -0.242716 -4.980390 89.746500 0.829376 -72.999400 -5.348130 -0.000001 -0.000004 -62.467300 -11.868200 19.190200 -24.328900 0.000322 -0.000009 4.412710 8.238690 -28.310300 -22.291500 -0.000108 -0.000004 49.138800 5.259680 1.172330 -2.192480 -6.469440 -0.000000 -175.671000 -7.414500 -11.766100 39.081100 -0.000007 -0.000012 0.353672 -0.086464 76.261200 40.985400 -0.000006 -0.000013 -5.303190 -6.839020 -34.252900 11.754300 -0.000000 0.000003 0.002198 0.055236 -14.336300 -2.192510 6.469440 -0.000001 -169.354000 -0.840134 142.490000 -39.081100 -0.002282 -0.040193 0.277549 -0.294115 43.001600 -40.985400 0.000008 0.000006 1.019210 -5.711980 -73.156800 -11.754300 -0.000006 -0.000006 -0.006742 0.245103 -6.621390
